<?xml version="1.0" standalone="no"?>
<!DOCTYPE svg PUBLIC "-//W3C//DTD SVG 20010904//EN"
 "http://www.w3.org/TR/2001/REC-SVG-20010904/DTD/svg10.dtd">
<svg version="1.0" xmlns="http://www.w3.org/2000/svg"
 width="136.000000pt" height="136.000000pt" viewBox="0 0 136.000000 136.000000"
 preserveAspectRatio="xMidYMid meet">
<metadata>
Created by potrace 1.14, written by Peter Selinger 2001-2017
</metadata>
<g transform="translate(0.000000,136.000000) scale(0.100000,-0.100000)"
fill="#000000" stroke="none">
<path d="M284 1341 c-60 -20 -97 -48 -134 -99 -35 -48 -47 -86 -46 -141 l1
-45 93 -1 c51 -1 96 -6 101 -11 22 -22 22 -60 1 -79 -17 -16 -36 -19 -110 -18
l-90 1 0 -107 0 -107 96 0 c84 -1 98 -4 107 -20 19 -32 18 -53 -2 -71 -16 -15
-37 -18 -110 -18 l-91 0 0 -106 0 -105 90 0 c78 0 93 -3 111 -20 15 -16 18
-28 13 -48 -9 -36 -32 -43 -133 -41 l-83 1 5 -56 c8 -103 76 -193 171 -229 47
-17 79 -19 416 -17 l365 1 55 30 c62 34 114 97 131 158 9 29 12 177 12 497 1
436 0 457 -20 501 -28 63 -75 113 -131 140 -46 23 -53 23 -407 25 -317 2 -367
0 -411 -15z m558 -322 c72 -37 110 -127 88 -209 -12 -43 -60 -105 -89 -115
-15 -4 -12 -11 20 -44 40 -43 85 -128 94 -181 14 -81 -41 -119 -181 -128 -154
-9 -241 38 -230 123 8 55 49 135 94 182 l37 40 -36 25 c-101 72 -94 239 13
302 63 38 123 39 190 5z"/>
</g>
</svg>
